PathFileType	4	(X/Y/Z)	 control3min.trc
DataRate	CameraRate	NumFrames	NumMarkers	Units	OrigDataRate	OrigDataStartFrame	OrigNumFrames
200	200	9	43	m	200	626	1000
Frame#	Time	C7			LSH			RSH			MAN			RASI			LASI			HIPR			HIPL			RPSI			LPSI			COX			RTHI1			RTHI2			RTHI3			RTHI4			RLKN			RMKN			RSHA1			RSHA2			RSHA3			RSHA4			RLMAL			RMMAL			RHEEL			RMET5			RMET1			RTOE			LTHI1			LTHI2			LTHI3			LTHI4			LLKN			LMKN			LSHA1			LSHA2			LSHA3			LSHA4			LLMAL			LMMAL			LHEEL			LMET5			LMET1			LTOE			
		X1	Y1	Z1	X2	Y2	Z2	X3	Y3	Z3	X4	Y4	Z4	X5	Y5	Z5	X6	Y6	Z6	X7	Y7	Z7	X8	Y8	Z8	X9	Y9	Z9	X10	Y10	Z10	X11	Y11	Z11	X12	Y12	Z12	X13	Y13	Z13	X14	Y14	Z14	X15	Y15	Z15	X16	Y16	Z16	X17	Y17	Z17	X18	Y18	Z18	X19	Y19	Z19	X20	Y20	Z20	X21	Y21	Z21	X22	Y22	Z22	X23	Y23	Z23	X24	Y24	Z24	X25	Y25	Z25	X26	Y26	Z26	X27	Y27	Z27	X28	Y28	Z28	X29	Y29	Z29	X30	Y30	Z30	X31	Y31	Z31	X32	Y32	Z32	X33	Y33	Z33	X34	Y34	Z34	X35	Y35	Z35	X36	Y36	Z36	X37	Y37	Z37	X38	Y38	Z38	X39	Y39	Z39	X40	Y40	Z40	X41	Y41	Z41	X42	Y42	Z42	X43	Y43	Z43	
626	3.1300	-0.133091	1.557005	-0.566705	-0.084546	1.525956	-0.765046	-0.050841	1.514376	-0.369171	-0.007678	1.478837	-0.570322	-0.081638	1.036587	-0.439230	-0.098523	1.037911	-0.697206	-0.142212	1.129070	-0.394987	-0.144209	1.111671	-0.728709	-0.259992	1.081303	-0.502034	-0.262678	1.082102	-0.603521	-0.265650	1.078483	-0.556610	-0.142509	0.821130	-0.362079	-0.136086	0.760045	-0.361360	-0.065139	0.775630	-0.360491	-0.078609	0.833838	-0.363197	-0.087219	0.509961	-0.368197	-0.088790	0.505368	-0.501432	-0.206333	0.372346	-0.361935	-0.218781	0.332357	-0.372853	-0.163971	0.314969	-0.352687	-0.154759	0.353513	-0.347365	-0.249218	0.136779	-0.368114	-0.214379	0.137798	-0.458889	-0.303499	0.126005	-0.409008	-0.157184	0.037407	-0.347182	-0.108076	0.047072	-0.427972	-0.079091	0.037256	-0.421392	-0.192663	0.820056	-0.744383	-0.175289	0.761414	-0.752591	-0.115111	0.775875	-0.770512	-0.124022	0.835699	-0.765022	-0.121340	0.524223	-0.749469	-0.100203	0.515890	-0.620709	-0.242246	0.338858	-0.742125	-0.259872	0.303861	-0.730754	-0.204792	0.279311	-0.740669	-0.192508	0.319997	-0.751771	-0.288759	0.136319	-0.726034	-0.265534	0.135369	-0.636882	-0.344907	0.128788	-0.680531	-0.196667	0.039605	-0.742766	-0.150434	0.049888	-0.666193	-0.125751	0.038627	-0.667596	
627	3.1350	-0.133415	1.551544	-0.566832	-0.084881	1.520333	-0.765065	-0.050919	1.508893	-0.369309	-0.008015	1.472985	-0.570382	-0.081893	1.031349	-0.438864	-0.098832	1.032863	-0.697007	-0.142691	1.123272	-0.394580	-0.145014	1.105751	-0.728728	-0.260478	1.075431	-0.501850	-0.263272	1.076432	-0.603245	-0.266208	1.072700	-0.556329	-0.142633	0.815440	-0.361891	-0.136178	0.754358	-0.361307	-0.065240	0.769991	-0.360389	-0.078747	0.828184	-0.362976	-0.087428	0.504224	-0.368456	-0.088793	0.499862	-0.501524	-0.207380	0.367560	-0.362909	-0.220149	0.327678	-0.373800	-0.165544	0.309840	-0.353688	-0.155954	0.348303	-0.348316	-0.252521	0.132756	-0.369134	-0.217522	0.133874	-0.460051	-0.306573	0.121352	-0.410149	-0.157925	0.036844	-0.346313	-0.108685	0.047108	-0.427017	-0.079496	0.037193	-0.420956	-0.192390	0.814544	-0.743966	-0.174960	0.755922	-0.752143	-0.114917	0.770447	-0.770481	-0.123907	0.830264	-0.765043	-0.120173	0.519122	-0.749661	-0.099428	0.510654	-0.620874	-0.242669	0.335029	-0.741974	-0.260623	0.300216	-0.730550	-0.205739	0.275178	-0.740278	-0.193075	0.315714	-0.751456	-0.290898	0.133138	-0.725499	-0.267992	0.132413	-0.636105	-0.347218	0.125183	-0.680375	-0.197855	0.038884	-0.743124	-0.151334	0.049652	-0.665735	-0.126243	0.038515	-0.667269	
628	3.1400	-0.133808	1.546086	-0.566947	-0.085300	1.514750	-0.765090	-0.051083	1.503422	-0.369447	-0.008354	1.467113	-0.570451	-0.082113	1.026085	-0.438493	-0.099108	1.027763	-0.696809	-0.143147	1.117260	-0.394120	-0.145752	1.099634	-0.728761	-0.261047	1.069372	-0.501342	-0.263885	1.070661	-0.602928	-0.266780	1.066808	-0.556007	-0.142744	0.809742	-0.361676	-0.136277	0.748664	-0.361242	-0.065343	0.764330	-0.360271	-0.078866	0.822509	-0.362727	-0.087815	0.498481	-0.368754	-0.088889	0.494263	-0.501627	-0.208626	0.362863	-0.364036	-0.221698	0.323080	-0.374897	-0.167342	0.304795	-0.354716	-0.157390	0.343199	-0.349328	-0.255814	0.128944	-0.370217	-0.220733	0.130192	-0.461254	-0.309598	0.116900	-0.411188	-0.159364	0.035883	-0.345797	-0.109896	0.047068	-0.426419	-0.080485	0.037167	-0.420922	-0.192112	0.808894	-0.743594	-0.174614	0.750294	-0.751773	-0.114722	0.764926	-0.770545	-0.123806	0.824731	-0.765130	-0.119020	0.513984	-0.749853	-0.098355	0.505350	-0.621077	-0.242929	0.331181	-0.741807	-0.261192	0.296553	-0.730341	-0.206495	0.271038	-0.739848	-0.193471	0.311437	-0.751101	-0.292840	0.129934	-0.724859	-0.270159	0.129513	-0.635241	-0.349359	0.121536	-0.680048	-0.198760	0.038251	-0.743406	-0.151968	0.049497	-0.665335	-0.126551	0.038388	-0.666992	
629	3.1450	-0.134267	1.540695	-0.567032	-0.085800	1.509259	-0.765130	-0.051330	1.498006	-0.369564	-0.008699	1.461270	-0.570529	-0.082296	1.020848	-0.438127	-0.099355	1.022650	-0.696624	-0.143585	1.111063	-0.393614	-0.146434	1.093346	-0.728811	-0.261638	1.063277	-0.500956	-0.264530	1.064817	-0.602567	-0.267378	1.060842	-0.555643	-0.142850	0.804163	-0.361440	-0.136384	0.743097	-0.361175	-0.065451	0.758768	-0.360145	-0.078974	0.816938	-0.362455	-0.088375	0.492890	-0.369059	-0.089047	0.488692	-0.501761	-0.209996	0.358323	-0.365250	-0.223316	0.318628	-0.376098	-0.169222	0.299960	-0.355723	-0.158973	0.338302	-0.350359	-0.258847	0.125313	-0.371329	-0.223767	0.126717	-0.462493	-0.312422	0.112576	-0.412166	-0.161263	0.034922	-0.345300	-0.111354	0.047096	-0.426701	-0.081289	0.037126	-0.420956	-0.191849	0.803146	-0.743283	-0.174252	0.744576	-0.751481	-0.114529	0.759358	-0.770674	-0.123725	0.819150	-0.765268	-0.117915	0.508852	-0.750030	-0.096988	0.500029	-0.621305	-0.243015	0.327316	-0.741632	-0.261568	0.292853	-0.730125	-0.207028	0.266905	-0.739356	-0.193670	0.307182	-0.750689	-0.294562	0.126685	-0.724102	-0.272057	0.126585	-0.634268	-0.351325	0.117870	-0.679550	-0.199460	0.037655	-0.743698	-0.152355	0.049311	-0.665138	-0.126653	0.038282	-0.666714	
630	3.1500	-0.134793	1.535439	-0.567083	-0.086396	1.503910	-0.765202	-0.051654	1.492694	-0.369634	-0.009060	1.455514	-0.570618	-0.082447	1.015697	-0.437775	-0.099577	1.017578	-0.696461	-0.144008	1.104716	-0.393083	-0.147058	1.086944	-0.728869	-0.262261	1.057269	-0.500473	-0.265213	1.058943	-0.602165	-0.268012	1.054837	-0.555241	-0.142957	0.798839	-0.361195	-0.136499	0.737779	-0.361111	-0.065565	0.753440	-0.360023	-0.079077	0.811610	-0.362180	-0.089026	0.487541	-0.369403	-0.089262	0.483267	-0.501943	-0.211390	0.353973	-0.366483	-0.224884	0.314345	-0.377335	-0.171034	0.295381	-0.356689	-0.160582	0.333682	-0.351353	-0.261443	0.121741	-0.372448	-0.226427	0.123370	-0.463781	-0.314979	0.108264	-0.413250	-0.162824	0.034229	-0.344902	-0.112251	0.047084	-0.426986	-0.081768	0.037113	-0.420911	-0.191625	0.797365	-0.743025	-0.173889	0.738834	-0.751258	-0.114338	0.753809	-0.770841	-0.123684	0.813589	-0.765439	-0.116878	0.503775	-0.750172	-0.095340	0.494746	-0.621549	-0.242966	0.323435	-0.741428	-0.261776	0.289138	-0.729877	-0.207371	0.262799	-0.738767	-0.193705	0.302956	-0.750196	-0.296041	0.123398	-0.723230	-0.273693	0.123601	-0.633191	-0.353106	0.114234	-0.678891	-0.200035	0.037140	-0.743944	-0.152595	0.049113	-0.664972	-0.126648	0.038156	-0.666436	
631	3.1550	-0.135383	1.530373	-0.567106	-0.087104	1.498762	-0.765319	-0.052056	1.487524	-0.369641	-0.009435	1.449908	-0.570713	-0.082572	1.010682	-0.437446	-0.099783	1.012599	-0.696331	-0.144418	1.098265	-0.392539	-0.147639	1.080469	-0.728928	-0.262983	1.051164	-0.499954	-0.265937	1.053087	-0.601723	-0.268689	1.048834	-0.554806	-0.143070	0.793880	-0.360953	-0.136630	0.732821	-0.361052	-0.065694	0.748459	-0.359927	-0.079186	0.806636	-0.361926	-0.089679	0.482552	-0.369829	-0.089531	0.478128	-0.502176	-0.212695	0.349792	-0.367682	-0.226294	0.310212	-0.378547	-0.172647	0.291066	-0.357604	-0.162089	0.329328	-0.352301	-0.263586	0.118158	-0.373620	-0.228624	0.120052	-0.465127	-0.317263	0.103893	-0.414502	-0.163847	0.033595	-0.344588	-0.112668	0.046987	-0.427162	-0.081941	0.037080	-0.420920	-0.191465	0.791635	-0.742797	-0.173536	0.733162	-0.751070	-0.114164	0.748372	-0.771013	-0.123705	0.808139	-0.765619	-0.115931	0.498795	-0.750259	-0.093460	0.489552	-0.621798	-0.242838	0.319597	-0.741155	-0.261881	0.285465	-0.729552	-0.207601	0.258765	-0.738073	-0.193639	0.298810	-0.749611	-0.297309	0.120110	-0.722253	-0.275101	0.120578	-0.632020	-0.354711	0.110691	-0.678057	-0.200541	0.036701	-0.744123	-0.152770	0.048906	-0.664713	-0.126594	0.038045	-0.666187	
632	3.1600	-0.136032	1.525561	-0.567102	-0.087899	1.493865	-0.765482	-0.052529	1.482544	-0.369582	-0.009824	1.444529	-0.570811	-0.082682	1.005861	-0.437141	-0.099982	1.007766	-0.696242	-0.144818	1.091760	-0.391989	-0.148205	1.073984	-0.728986	-0.263701	1.044886	-0.499396	-0.266699	1.047312	-0.601267	-0.269407	1.042907	-0.554357	-0.143203	0.789366	-0.360732	-0.136788	0.728306	-0.360999	-0.065846	0.743917	-0.359876	-0.079313	0.802105	-0.361717	-0.090308	0.477977	-0.370261	-0.089831	0.473413	-0.502459	-0.213851	0.345786	-0.368789	-0.227498	0.306232	-0.379717	-0.173985	0.286972	-0.358506	-0.163413	0.325195	-0.353239	-0.265301	0.114524	-0.374839	-0.230335	0.116685	-0.466535	-0.319279	0.099490	-0.415902	-0.164534	0.033062	-0.344359	-0.112777	0.046826	-0.427340	-0.081851	0.037015	-0.420964	-0.191392	0.786076	-0.742552	-0.173216	0.727681	-0.750865	-0.114039	0.743161	-0.771159	-0.123824	0.802917	-0.765781	-0.115098	0.493943	-0.750267	-0.091392	0.484517	-0.622044	-0.242701	0.315886	-0.740768	-0.261953	0.281913	-0.729107	-0.207790	0.254876	-0.737274	-0.193555	0.294820	-0.748929	-0.298415	0.116887	-0.721177	-0.276315	0.117567	-0.630784	-0.356155	0.107301	-0.677072	-0.201039	0.036359	-0.744209	-0.152914	0.048710	-0.664441	-0.126534	0.037956	-0.665975	
633	3.1650	-0.136724	1.521059	-0.567069	-0.088773	1.489271	-0.765680	-0.053062	1.477798	-0.369483	-0.010229	1.439436	-0.570906	-0.082784	1.001292	-0.436858	-0.100178	1.003145	-0.696211	-0.145218	1.085268	-0.391457	-0.148762	1.067551	-0.729035	-0.264484	1.039038	-0.498921	-0.267495	1.041699	-0.600804	-0.270147	1.037152	-0.553910	-0.143360	0.785315	-0.360539	-0.136972	0.724254	-0.360955	-0.066020	0.739824	-0.359877	-0.079463	0.798025	-0.361565	-0.090872	0.473810	-0.370714	-0.090156	0.469181	-0.502781	-0.214824	0.341949	-0.369794	-0.228504	0.302428	-0.380794	-0.175047	0.283085	-0.359449	-0.164500	0.321264	-0.354182	-0.266657	0.110863	-0.376091	-0.231623	0.113253	-0.467988	-0.321030	0.095183	-0.417443	-0.165114	0.032633	-0.344216	-0.112735	0.046678	-0.427560	-0.081660	0.036941	-0.420975	-0.191417	0.780822	-0.742247	-0.172951	0.722527	-0.750600	-0.113984	0.738305	-0.771258	-0.124053	0.798050	-0.765910	-0.114394	0.489266	-0.750181	-0.089225	0.479696	-0.622282	-0.242611	0.312389	-0.740226	-0.262054	0.278549	-0.728503	-0.208008	0.251206	-0.736391	-0.193520	0.291062	-0.748152	-0.299415	0.113823	-0.720020	-0.277396	0.114606	-0.629481	-0.357458	0.104117	-0.675973	-0.201524	0.036107	-0.744196	-0.153055	0.048544	-0.664195	-0.126486	0.037900	-0.665819	
634	3.1700	-0.137450	1.516923	-0.567019	-0.089727	1.485018	-0.765908	-0.053643	1.473351	-0.369353	-0.010661	1.434712	-0.571001	-0.082886	0.997042	-0.436594	-0.100372	0.998796	-0.696249	-0.145622	1.078867	-0.390949	-0.149324	1.061246	-0.729071	-0.265337	1.033304	-0.498385	-0.268290	1.036365	-0.600367	-0.270877	1.031704	-0.553496	-0.143539	0.781699	-0.360383	-0.137176	0.720630	-0.360927	-0.066215	0.736162	-0.359915	-0.079634	0.794369	-0.361467	-0.091350	0.470027	-0.371206	-0.090497	0.465448	-0.503127	-0.215609	0.338315	-0.370718	-0.229348	0.298824	-0.381808	-0.175854	0.279390	-0.360455	-0.165339	0.317544	-0.355136	-0.267767	0.107283	-0.377388	-0.232623	0.109831	-0.469458	-0.322533	0.091137	-0.419082	-0.165676	0.032343	-0.344170	-0.112675	0.046538	-0.427796	-0.081506	0.036878	-0.420974	-0.191527	0.776015	-0.741839	-0.172758	0.717823	-0.750239	-0.114015	0.733917	-0.771294	-0.124390	0.793647	-0.765989	-0.113831	0.484829	-0.749983	-0.087044	0.475144	-0.622488	-0.242604	0.309148	-0.739506	-0.262201	0.275447	-0.727722	-0.208285	0.247817	-0.735441	-0.193564	0.287601	-0.747305	-0.300338	0.110998	-0.718789	-0.278365	0.111788	-0.628130	-0.358619	0.101134	-0.674756	-0.201966	0.035945	-0.744106	-0.153175	0.048442	-0.663940	-0.126429	0.037866	-0.665704	
